<svg width="60" height="61" viewBox="0 0 60 61" fill="none" xmlns="http://www.w3.org/2000/svg">
<g opacity="0.5">
<circle opacity="0.3" cx="30" cy="30.502" r="25" fill="#FF3D24"/>
<circle opacity="0.3" cx="30" cy="30.502" r="30" fill="#FF3D24"/>
<circle cx="30" cy="30.502" r="20" fill="#FF3D24"/>
</g>
<g clip-path="url(#clip0_365_2412)">
<path d="M38.7613 33.866C37.5368 33.866 36.3345 33.6745 35.1952 33.298C34.6369 33.1076 33.9506 33.2822 33.6099 33.6322L31.3611 35.3298C28.7531 33.9377 27.1467 32.3317 25.7735 29.7433L27.4212 27.5531C27.8493 27.1256 28.0028 26.5011 27.8188 25.9152C27.4407 24.7699 27.2486 23.5682 27.2486 22.3432C27.2487 21.4582 26.5287 20.7383 25.6438 20.7383H21.9709C21.086 20.7383 20.3661 21.4582 20.3661 22.3431C20.3661 32.4864 28.6181 40.7383 38.7613 40.7383C39.6462 40.7383 40.3661 40.0183 40.3661 39.1334V35.4708C40.3661 34.5859 39.6461 33.866 38.7613 33.866Z" fill="white"/>
</g>
<defs>
<clipPath id="clip0_365_2412">
<rect width="20" height="20" fill="white" transform="translate(20.3661 20.7383)"/>
</clipPath>
</defs>
</svg>
